<svg xmlns="http://www.w3.org/2000/svg"><defs><style>.cls-1{fill:#9aa5a9;fill-rule:evenodd}</style><style>.cls-1{fill:#63757e;fill-rule:evenodd}</style></defs><symbol id="heart" viewBox="0 0 512 512"><path d="M365.109 54.603c-44.572 0-84.156 21.337-109.109 54.35-24.953-33.012-64.538-54.35-109.109-54.35-75.492 0-136.692 61.199-136.692 136.693 0 95.888 83.741 156.115 129.949 190.633 57.242 42.76 52.644 38.401 115.852 75.467 63.206-37.066 58.609-32.706 115.852-75.467 46.209-34.518 129.949-94.746 129.949-190.633 0-75.493-61.199-136.693-136.692-136.693z" fill="#ff757c"/><g fill="#4d4d4d"><path d="M256 467.595c-1.784 0-3.567-.467-5.16-1.401a7687.662 7687.662 0 0 0-24.432-14.256c-39.207-22.805-43.305-25.189-92.364-61.837l-3.208-2.394c-23.647-17.637-56.031-41.793-82.64-73.702C16.216 275.653 0 234.367 0 191.296 0 110.3 65.895 44.405 146.891 44.405c42.168 0 81.27 17.539 109.109 48.529 27.839-30.99 66.94-48.529 109.109-48.529C446.105 44.405 512 110.3 512 191.296c0 43.071-16.216 84.356-48.197 122.709-26.609 31.91-58.994 56.065-82.64 73.703l-3.208 2.394c-49.059 36.648-53.157 39.031-92.364 61.837-6.895 4.01-14.89 8.661-24.432 14.256a10.196 10.196 0 0 1-5.159 1.4zM146.891 64.804c-69.748 0-126.493 56.744-126.493 126.493 0 88.588 76.768 145.849 122.635 180.06l3.22 2.402c48.12 35.946 52.122 38.274 90.412 60.546 5.631 3.276 11.996 6.978 19.336 11.271 7.338-4.293 13.704-7.995 19.336-11.271 38.29-22.272 42.292-24.6 90.412-60.546l3.22-2.402c45.865-34.211 122.633-91.472 122.633-180.06 0-69.748-56.744-126.493-126.493-126.493-40.007 0-76.81 18.334-100.972 50.299a10.2 10.2 0 0 1-16.274 0c-24.162-31.966-60.965-50.299-100.972-50.299z"/><path d="M455.215 203.635c-5.633 0-10.199-4.566-10.199-10.199 0-18.973-6.287-36.784-18.18-51.51-3.539-4.382-2.856-10.803 1.526-14.343 4.382-3.54 10.804-2.856 14.343 1.526 14.645 18.131 22.711 40.976 22.711 64.326-.002 5.634-4.568 10.2-10.201 10.2zM404.402 121.201c-1.543 0-3.108-.351-4.579-1.092a81.695 81.695 0 0 0-10.389-4.361c-5.332-1.816-8.183-7.611-6.367-12.943 1.815-5.333 7.61-8.183 12.943-6.367a102.105 102.105 0 0 1 12.989 5.452c5.031 2.533 7.055 8.666 4.521 13.697a10.198 10.198 0 0 1-9.118 5.614z"/></g></symbol><symbol id="logotype" viewBox="0 0 293.406 71.031" preserveAspectRatio="xMidYMid"><path d="M292.336 26.842h-8.891c-.756 0-1.08-.468-1.08-1.332 0-.756.324-1.188 1.08-1.188h1.908c.755 0 1.079-.324 1.079-1.08V5.245c0-.756-.324-1.08-1.079-1.08h-1.908c-.756 0-1.08-.432-1.08-1.188 0-.864.324-1.332 1.08-1.332h4.787c.756 0 1.08.468 1.08 1.332v20.265c0 .756.324 1.08 1.08 1.08h1.944c.756 0 1.079.432 1.079 1.296 0 .756-.323 1.224-1.079 1.224zm-23.109 0h-.648c-.756 0-1.08-.324-1.08-1.08v-.72c0-.252-.072-.36-.144-.36s-.144.108-.18.18c-.504 1.08-2.231 2.124-4.391 2.124-5.003 0-5.003-5.003-5.003-5.003v-8.279s0-5.004 5.003-5.004c2.16 0 3.887 1.044 4.391 2.124.036.072.108.18.18.18s.144-.108.144-.36v-.72c0-.756.324-1.08 1.08-1.08h.648c.756 0 1.08.324 1.08 1.08v15.838c0 .756-.324 1.08-1.08 1.08zm-1.728-12.059c0-2.195-1.835-3.275-3.635-3.275-3.276 0-3.276 2.196-3.276 2.196v8.279s0 2.195 3.276 2.195c1.8 0 3.635-1.08 3.635-3.275v-6.12zm-25.052-9.107a2.734 2.734 0 0 1-2.735-2.735c0-1.512 1.224-2.772 2.735-2.772 1.512 0 2.772 1.26 2.772 2.772 0 1.512-1.26 2.735-2.772 2.735zm1.98 4.248v15.838c0 .756-.324 1.08-1.08 1.08h-.72c-.756 0-1.08-.324-1.08-1.08V12.444c0-.756-.324-1.08-1.079-1.08h-1.908c-.756 0-1.08-.432-1.08-1.188 0-.864.324-1.332 1.08-1.332h4.787c.756 0 1.08.324 1.08 1.08zm-20.567 1.584h-1.836c-1.8 0-3.527 1.08-3.527 3.275v8.459c0 .756.324 1.08 1.08 1.08h2.195c.756 0 1.08.432 1.08 1.296 0 .756-.324 1.224-1.08 1.224h-8.171c-.756 0-1.08-.468-1.08-1.332 0-.756.324-1.188 1.08-1.188h.936c.756 0 1.08-.324 1.08-1.08l-.036-13.318c0-.756.324-1.08 1.08-1.08h.648c.756 0 1.08.324 1.08 1.08v.72c0 .252.072.36.144.36s.144-.108.18-.18c.504-1.08 2.231-2.124 4.391-2.124h.756c.756 0 1.08.324 1.08 1.08v.648c0 .756-.324 1.08-1.08 1.08zm-23.152 52.334h-.648c-.756 0-1.079-.324-1.079-1.08V50.847s0-2.195-2.196-2.195h-2.52c-2.196 0-2.196 2.195-2.196 2.195v11.915c0 .756-.324 1.08-1.08 1.08h-.647c-.756 0-1.08-.324-1.08-1.08V50.488s-.036-1.368 1.044-1.872c.072-.036.18-.108.18-.18s-.108-.144-.36-.144h-1.98c-.756 0-1.08-.324-1.08-1.08v-.288c0-.756.324-1.08 1.08-1.08h8.639c5.003 0 5.003 5.003 5.003 5.003v11.915c0 .756-.324 1.08-1.08 1.08zm-1.292-37h-1.476c-4.463 0-5.003-3.96-5.003-4.824v-9.574c0-.756-.324-1.08-1.08-1.08h-1.044c-.756 0-1.08-.324-1.08-1.08v-.54c0-.756.324-1.08 1.08-1.08h1.044c.756 0 1.08-.324 1.08-1.08V3.805c0-.756.36-1.08 1.116-1.08h.72c.756 0 1.079.324 1.079 1.08v3.779c0 .756.253 1.08 1.008 1.08h2.52c.756 0 1.08.324 1.08 1.08v.54c0 .756-.324 1.08-1.08 1.08h-2.556c-.755 0-1.079.324-1.079 1.08v9.503c.036.467.324 2.087 2.195 2.087h1.476c.756 0 1.08.324 1.08 1.08v.648c0 .756-.324 1.08-1.08 1.08zm-27.093.144c-2.808 0-5.975-1.728-5.975-5.435v-.18c0-.756.324-1.08 1.08-1.116h.576c.791 0 1.079.396 1.079 1.044v.359c0 1.584 1.8 2.628 3.132 2.628 1.26 0 2.916-.648 2.916-2.087 0-3.492-8.351-3.384-8.351-8.459 0-3.24 2.411-5.148 5.435-5.148 2.808 0 5.111 1.728 5.111 4.716v.18c0 .756-.324 1.079-1.079 1.115h-.576c-.792 0-1.08-.396-1.08-1.043v-.36c0-.864-1.152-1.872-2.484-1.872-1.26 0-2.34.792-2.34 2.232 0 3.059 8.135 2.771 8.135 8.639 0 3.023-2.915 4.787-5.579 4.787zm3.765 18.858c.756 0 1.08.324 1.08 1.08v.288c0 .756-.324 1.08-1.08 1.08h-1.98c-.252 0-.36.072-.36.144s.108.144.18.18c1.08.504 1.044 1.872 1.044 1.872l.036 15.694c0 .792-.504 4.859-5.004 4.859h-4.643c-.756 0-1.08-.324-1.08-1.08v-.648c0-.756.324-1.08 1.08-1.08h4.643c1.872 0 2.196-1.619 2.196-2.195v-5.436c0-.252-.072-.36-.144-.36s-.144.108-.18.18c-.504 1.08-2.231 2.124-4.391 2.124-5.004 0-5.004-5.003-5.004-5.003v-6.696s0-5.003 5.004-5.003h8.603zm-10.799 5.003v6.696s0 2.195 3.276 2.195c1.799 0 3.635-1.079 3.635-3.275l-.036-5.616c0-1.151-.9-2.195-2.196-2.195h-2.483c-2.196 0-2.196 2.195-2.196 2.195zm-10.751-24.005h-7.919c-5.003 0-5.003-5.003-5.003-5.003l.036-11.951c0-.756.324-1.08 1.08-1.08h.648c.755 0 1.079.324 1.079 1.08l-.036 11.951s0 2.195 2.196 2.195h2.52c2.088 0 2.196-1.872 2.196-2.051V9.888c0-.756.324-1.08 1.079-1.08h.648c.756 0 1.08.324 1.08 1.08v10.907c0 1.835-.684 2.879-1.764 3.383-.072.036-.18.108-.18.18s.108.144.36.144h1.98c.756 0 1.08.324 1.08 1.08v.18c0 .756-.324 1.08-1.08 1.08zm-30.142 37.144c-2.807 0-5.975-1.728-5.975-5.436v-.179c0-.756.324-1.08 1.08-1.116h.576c.792 0 1.08.396 1.08 1.044v.36c0 1.583 1.799 2.627 3.131 2.627 1.26 0 2.916-.648 2.916-2.088 0-3.491-8.351-3.383-8.351-8.458 0-3.24 2.412-5.148 5.435-5.148 2.808 0 5.112 1.728 5.112 4.716v.18c0 .755-.324 1.079-1.08 1.115h-.576c-.792 0-1.08-.396-1.08-1.043v-.36c0-.864-1.152-1.872-2.484-1.872-1.26 0-2.339.792-2.339 2.232 0 3.059 8.134 2.771 8.134 8.638 0 3.024-2.915 4.788-5.579 4.788zm4.291-37.144h-.648c-.756 0-1.08-.324-1.08-1.08v-.72c0-.252-.072-.36-.144-.36s-.144.108-.18.18c-.504 1.08-2.232 2.124-4.391 2.124-5.004 0-5.004-5.003-5.004-5.003v-8.279s0-5.004 5.004-5.004c2.159 0 3.887 1.044 4.391 2.124.036.072.108.18.18.18s.144-.108.144-.36V2.005c0-.756.324-1.08 1.08-1.08h.648c.756 0 1.08.324 1.08 1.08v23.757c0 .756-.324 1.08-1.08 1.08zm-1.728-12.059c0-2.195-1.836-3.275-3.635-3.275-3.276 0-3.276 2.196-3.276 2.196v8.279s0 2.195 3.276 2.195c1.799 0 3.635-1.08 3.635-3.275v-6.12zm-22.972 41.608h-5.759c-.756 0-1.08.324-1.08 1.08v1.404s0 2.195 2.196 2.195h6.083c.756 0 1.08.324 1.08 1.08v.612c0 .756-.324 1.08-1.08 1.08h-6.083c-5.003 0-5.003-5.004-5.003-5.004v-7.991s0-5.003 5.003-5.003h2.88c5.003 0 5.003 5.003 5.003 5.003v2.304c0 2.268-.972 3.24-3.24 3.24zm.432-5.58s0-2.195-2.195-2.195h-2.88c-2.196 0-2.196 2.195-2.196 2.195v1.872c0 .756.324 1.08 1.08 1.08h5.111c.756 0 1.08-.324 1.08-1.08v-1.872zm.375-23.969h-.648c-.756 0-1.08-.324-1.08-1.08V13.848s0-2.196-2.196-2.196h-2.52c-2.195 0-2.195 2.196-2.195 2.196v11.914c0 .756-.324 1.08-1.08 1.08h-.648c-.756 0-1.08-.324-1.08-1.08V13.488s-.036-1.368 1.044-1.872c.072-.036.18-.108.18-.18s-.108-.144-.36-.144h-1.98c-.756 0-1.08-.324-1.08-1.08v-.288c0-.756.324-1.08 1.08-1.08h8.639c5.003 0 5.003 5.004 5.003 5.004v11.914c0 .756-.324 1.08-1.079 1.08zm-29.113 37H70.03c-.684 0-.972-.288-.972-.972V39.617c0-.684.288-.972.972-.972h5.651c3.06 0 7.307 1.26 7.307 7.523v10.151c0 6.263-4.247 7.523-7.307 7.523zm4.607-17.998c0-2.592-1.403-4.535-4.859-4.535h-2.52c-.827 0-1.187.36-1.187 1.188V59.99c0 .828.36 1.188 1.187 1.188h2.52c3.456 0 4.859-1.944 4.859-4.535V45.844zm-2.231-21.522H80c.756 0 1.08.432 1.08 1.296 0 .756-.324 1.224-1.08 1.224h-8.89c-.756 0-1.08-.468-1.08-1.332 0-.756.324-1.188 1.08-1.188h1.907c.756 0 1.08-.324 1.08-1.08V5.245c0-.756-.324-1.08-1.08-1.08H71.11c-.756 0-1.08-.432-1.08-1.188 0-.864.324-1.332 1.08-1.332H80c.756 0 1.08.468 1.08 1.332 0 .756-.324 1.188-1.08 1.188h-1.943c-.756 0-1.08.324-1.08 1.08v17.997c0 .756.324 1.08 1.08 1.08zm-24.355 6.479c-.568 2.349-.932 4.536-1.796 6.53-3.249 7.495-8.476 12.022-16.105 15.155-1.516.623-3.264.787-4.969 1.199-.816.196-1.714.057-2.515.239-.724.165-2.939.015-3.532-.12-.958-.217-1.803-.068-2.694-.299-2.052-.534-3.956-1.039-5.688-1.797-6.054-2.653-11.24-7.401-13.889-13.419-.559-1.268-.917-2.483-1.377-3.894-.402-1.23-.571-2.683-.899-4.073l-.119-2.037c-.208-.967-.145-2.632.06-3.534l.119-1.618c.413-1.705.575-3.455 1.198-4.972C4.631 10.526 9.148 5.3 16.643 2.047 18.429 1.272 20.381.89 22.45.37l2.335-.3c.294-.066.689.071.898-.06 7.334-.144 12.426 1.888 16.644 4.853 4.291 3.017 7.393 6.78 9.579 11.921.569 1.339 1.005 2.843 1.437 4.373l.479 2.935v.659c.195.902.277 2.569.059 3.534-.191.848.016 1.708-.179 2.516zM29.392 46.59c.272.378.794 1.461 1.256 1.555.329-.201.852-.125 1.256-.239.664-.187 1.436-.379 2.033-.658-.338-.342-.854-.496-1.256-.777-.633-.443-1.231-.966-1.854-1.435l-.658-.718c-.165-.125-.355-.197-.478-.359-.639-.845-1.422-1.579-2.033-2.452-.355-.506-.582-1.185-1.017-1.614.463 2.82 1.403 4.823 2.751 6.697zm-9.568.598c.408.047.74.248 1.076.359l2.333.538v-.059c-.291-.302-.394-.744-.598-1.137-.867-1.668-1.329-3.53-1.854-5.621l-.239-2.212c-.073-.324.087-.783-.06-1.017-.095.708-.46 1.425-.658 2.093-.489 1.653-.589 5.431 0 7.056zm-8.013-5.262l1.614 1.435v-.837l.299-2.512c.423-1.641.794-3.226 1.436-4.604.162-.348.935-1.901.897-2.033l-1.615 1.435c-1.32 1.742-2.934 3.66-3.528 6.099.364.243.634.668.897 1.017zm-5.143-9.508c.187.664.379 1.436.658 2.033.515-.511.831-1.321 1.256-1.914 1.148-1.599 2.641-2.976 4.245-4.126.541-.388 1.112-.977 1.794-1.196v-.06h-.119c-.209.125-.5.045-.778.12-.569.153-1.232.27-1.794.478a16.529 16.529 0 0 0-4.006 2.153c-.372.268-1.404.794-1.495 1.256.201.329.125.852.239 1.256zm2.87-12.498a16.14 16.14 0 0 1-2.152.299c-.261 1.113-.689 2.253-.957 3.468h.06c.301-.291.743-.394 1.136-.598 1.668-.867 3.53-1.328 5.621-1.854l2.213-.239c.323-.073.782.087 1.016-.06-.704-.085-1.429-.46-2.093-.658-1.108-.33-2.455-.39-3.767-.418-.249.152-.736-.014-1.077.06zm4.067-8.492c-.534.795-2.121 1.592-2.452 2.512h.777c.344.2.941.02 1.376.119l2.093.359c1.271.358 2.554.694 3.707 1.196l2.034 1.017v-.06c-.719-.498-1.152-1.442-1.854-1.974-1.539-1.163-3.553-2.65-5.681-3.169zm11.78-1.973c-.559-.888-1.307-1.673-1.853-2.572h-.18c-.329.202-.852.126-1.256.239-.664.188-1.436.379-2.033.658.492.496 1.548 1 2.153 1.435 1.541 1.109 2.851 2.624 3.947 4.186.37.528.923 1.07 1.136 1.735h.06c-.367-2.206-.975-4.099-1.974-5.681zM27 21a6 6 0 1 0 0 12 6 6 0 0 0 0-12zm7.176-13.16c-.408-.046-.74-.248-1.076-.359l-2.333-.538.957 1.794c.559 1.265.928 2.639 1.316 4.066.271 1.001.18 2.112.418 3.17.073.323-.087.783.06 1.016.095-.707.46-1.424.658-2.093.489-1.653.589-5.431 0-7.056zM32.86 38.398c1.295 2.001 4.893 4.564 7.535 5.202.534-.795 2.121-1.591 2.452-2.511H41.83c-.326-.191-.904-.024-1.315-.12l-2.512-.478c-1.164-.356-2.328-.722-3.408-1.196-.573-.251-1.124-.693-1.735-.897zm4.665-4.306c.515.066.981.331 1.435.479l2.332.478c1.738.4 3.713-.131 5.322-.239.203-.821.463-1.664.718-2.572.068-.24.268-.686.179-.897-.301.291-.743.394-1.136.598-1.668.868-3.53 1.329-5.621 1.854l-2.213.239c-.323.073-.782-.087-1.016.06zm3.05-22.425c.061 2.729-.663 5.572-1.495 7.535l-1.196 2.452h.059c.498-.718 1.442-1.151 1.974-1.854 1.164-1.539 2.651-3.552 3.169-5.681-.795-.534-1.591-2.121-2.511-2.452zm6.039 8.91c-.248.783-.931 1.417-1.375 2.034-1.164 1.618-2.55 2.918-4.186 4.066-.527.37-1.069.924-1.734 1.136v.06h.119c.209-.124.499-.048.778-.12.529-.136 1.146-.226 1.674-.418a16.571 16.571 0 0 0 4.186-2.213c.367-.266 1.406-.861 1.495-1.315-.437-.723-.332-2.728-.957-3.23zM27 29a2 2 0 1 1-.001-3.999A2 2 0 0 1 27 29zm120.148 13.677a2.734 2.734 0 0 1-2.735-2.736c0-1.512 1.223-2.772 2.735-2.772 1.512 0 2.772 1.26 2.772 2.772 0 1.512-1.26 2.736-2.772 2.736zm-3.887 3.167h4.787c.756 0 1.08.324 1.08 1.08v15.838c0 .756-.324 1.08-1.08 1.08h-.72c-.756 0-1.08-.324-1.08-1.08V49.444c0-.756-.324-1.08-1.08-1.08h-1.907c-.756 0-1.08-.432-1.08-1.188 0-.864.324-1.332 1.08-1.332z" class="cls-1"/></symbol><symbol id="programmer" viewBox="0 0 512 512"><g fill="#ecebed"><path d="M501.552 243.487v12.521H411.7v-12.521c0-7.292 5.907-13.201 13.198-13.201h63.457c7.286 0 13.197 5.909 13.197 13.201zM425.375 347.646h76.177v16.074c0 7.292-5.911 13.2-13.198 13.2h-63.457c-7.291 0-13.198-5.909-13.198-13.2v-16.074h13.676z"/></g><g fill="#27b5f7"><path d="M411.701 256.006h89.852v91.639h-89.852zM257.932 235.422v160.273H10.499V235.422c0-7.803 6.039-14.13 13.487-14.13h220.458c7.449 0 13.488 6.327 13.488 14.13z"/></g><path d="M213.864 319.126v20.353a16.847 16.847 0 0 1-10.365 15.549l-67.241 28.016c-14.206 5.92-23.459 22.008-23.459 37.397v81.092h286.352v-81.092c0-15.389-9.254-31.479-23.459-37.397l-67.241-28.016a16.844 16.844 0 0 1-10.365-15.549v-20.353h-84.222z" fill="#febba0"/><path d="M375.692 383.044l-67.241-28.016a16.838 16.838 0 0 1-10.237-13.561v12.816c0 23.239-19.014 42.255-42.255 42.255-23.239 0-42.254-19.014-42.254-42.255v-12.557a16.839 16.839 0 0 1-10.208 13.301l-67.241 28.016c-14.206 5.92-23.459 22.008-23.459 37.397v81.092h286.352V420.44c.002-15.387-9.253-31.477-23.457-37.396z" fill="#89cd37"/><path d="M350.006 199.171v-30.443c0-51.831-42.017-93.848-93.848-93.848-51.831 0-93.848 42.017-93.848 93.848h-.368v30.443c-12.925 0-23.403 10.478-23.403 23.403 0 12.925 10.478 23.403 23.403 23.403v17.472c1.126 14.735 8.311 27.853 19.192 35.038l56.575 32.343c11.36 7.503 25.173 7.503 36.533 0l56.405-32.343c10.879-7.185 18.233-20.303 19.36-35.038v-17.472c12.925 0 23.403-10.478 23.403-23.403-.001-12.926-10.479-23.403-23.404-23.403z" fill="#febba0"/><path d="M345.538 69.976c-17.704-22.56-36.427-27.376-50.329-20.61-11.022-9.42-27.536-18.827-55.116-18.827-62.297 0-96.385 47.794-96.385 90.274 0 45.334 18.236 74.222 18.236 74.222s6.794-47.684 53.474-47.684c31.206 0 50.01-12.389 63.133-27.592 5.577 14.531 32.583 20.632 43.191 30.01 20.997 18.557 28.249 33.081 28.249 33.081s33.089-65.044-4.453-112.874z" fill="#703e41"/><path d="M113.566 270.634h-.137c-5.77 0-10.448-4.678-10.448-10.448 0-5.77 4.678-10.448 10.448-10.448h.137c5.77 0 10.448 4.678 10.448 10.448 0 5.77-4.678 10.448-10.448 10.448zM79.628 270.634H49.816c-5.77 0-10.448-4.678-10.448-10.448 0-5.77 4.678-10.448 10.448-10.448h29.812c5.77 0 10.448 4.678 10.448 10.448 0 5.77-4.678 10.448-10.448 10.448zM134.215 331.58H49.816c-5.77 0-10.448-4.678-10.448-10.448 0-5.77 4.678-10.448 10.448-10.448h84.399c5.77 0 10.448 4.678 10.448 10.448 0 5.77-4.677 10.448-10.448 10.448zM113.566 301.106h-.137c-5.77 0-10.448-4.678-10.448-10.448 0-5.77 4.678-10.448 10.448-10.448h.137c5.77 0 10.448 4.678 10.448 10.448 0 5.771-4.678 10.448-10.448 10.448zM79.628 301.107H49.816c-5.77 0-10.448-4.678-10.448-10.448 0-5.77 4.678-10.448 10.448-10.448h29.812c5.77 0 10.448 4.678 10.448 10.448 0 5.771-4.678 10.448-10.448 10.448zM144.823 301.107h-.976c-5.77 0-10.448-4.678-10.448-10.448 0-5.77 4.678-10.448 10.448-10.448h.976c5.77 0 10.448 4.678 10.448 10.448 0 5.771-4.678 10.448-10.448 10.448zM10.585 511.981h-.137C4.678 511.981 0 507.304 0 501.533c0-5.77 4.678-10.448 10.448-10.448h.137c5.77 0 10.448 4.678 10.448 10.448 0 5.771-4.678 10.448-10.448 10.448zM501.501 511.981h-.137c-5.77 0-10.448-4.678-10.448-10.448 0-5.77 4.678-10.448 10.448-10.448h.137c5.77 0 10.448 4.678 10.448 10.448 0 5.771-4.678 10.448-10.448 10.448zM294.077 235.482c-6.44 0-11.679-5.239-11.679-11.678 0-6.44 5.239-11.679 11.679-11.679s11.679 5.239 11.679 11.679c0 6.439-5.239 11.678-11.679 11.678zM217.872 235.482c-6.44 0-11.679-5.239-11.679-11.678 0-6.44 5.239-11.679 11.679-11.679s11.679 5.239 11.679 11.679c-.002 6.439-5.24 11.678-11.679 11.678zM256.018 292.456c-11.39 0-20.658-9.267-20.658-20.658 0-5.77 4.678-10.448 10.448-10.448h20.419c5.77 0 10.448 4.678 10.448 10.448 0 11.392-9.266 20.658-20.657 20.658zM222.92 479.118c-2.674 0-5.348-1.02-7.388-3.06l-23.465-23.465c-4.08-4.08-4.08-10.696 0-14.777l23.465-23.465c4.08-4.08 10.696-4.08 14.777 0 4.081 4.08 4.08 10.696 0 14.777l-16.078 16.077 16.078 16.077c4.08 4.08 4.08 10.696 0 14.777a10.417 10.417 0 0 1-7.389 3.059zM288.73 479.118c-2.674 0-5.348-1.02-7.388-3.06-4.08-4.08-4.08-10.696 0-14.777l16.078-16.077-16.078-16.077c-4.08-4.08-4.08-10.696 0-14.777 4.08-4.08 10.696-4.08 14.777 0l23.465 23.465c4.08 4.08 4.08 10.696 0 14.777l-23.465 23.465a10.414 10.414 0 0 1-7.389 3.061zM251.83 479.12c-.628 0-1.263-.057-1.903-.174-5.675-1.045-9.428-6.491-8.384-12.167l8.681-47.169c1.045-5.674 6.487-9.428 12.167-8.384 5.675 1.045 9.428 6.491 8.384 12.167l-8.681 47.169c-.928 5.034-5.321 8.558-10.264 8.558zM81.704 148.015c-17.379 0-31.518-14.139-31.518-31.518V95.95c0-17.379 14.139-31.518 31.518-31.518s31.518 14.139 31.518 31.518v20.548c0 17.379-14.139 31.517-31.518 31.517zm0-62.688c-5.857 0-10.622 4.765-10.622 10.622v20.548c0 5.857 4.765 10.622 10.622 10.622s10.622-4.765 10.622-10.622V95.95c0-5.857-4.765-10.623-10.622-10.623zM31.728 148.015c-5.77 0-10.448-4.678-10.448-10.448v-37.463l-3.393 3.393c-4.08 4.079-10.696 4.079-14.777 0-4.08-4.08-4.08-10.696 0-14.777l21.23-21.228a10.45 10.45 0 0 1 17.836 7.389v62.688c0 5.768-4.677 10.446-10.448 10.446zM430.854 83.602c-17.379 0-31.518-14.139-31.518-31.518V31.537c0-17.379 14.139-31.518 31.518-31.518s31.518 14.139 31.518 31.518v20.548c0 17.378-14.139 31.517-31.518 31.517zm0-62.687c-5.857 0-10.622 4.765-10.622 10.622v20.548c0 5.857 4.765 10.622 10.622 10.622s10.622-4.765 10.622-10.622V31.537c0-5.857-4.765-10.622-10.622-10.622zM501.552 83.602c-5.77 0-10.448-4.678-10.448-10.448V35.69l-3.393 3.395c-4.08 4.079-10.696 4.079-14.777 0-4.08-4.08-4.08-10.696 0-14.777l21.229-21.229a10.448 10.448 0 0 1 17.836 7.389v62.688c.001 5.769-4.677 10.446-10.447 10.446zM488.354 219.838h-63.457c-13.038 0-23.646 10.609-23.646 23.648V363.72c0 13.039 10.608 23.648 23.646 23.648h63.457c13.038 0 23.646-10.609 23.646-23.648V243.486c0-13.039-10.608-23.648-23.646-23.648zm-66.206 46.617h68.956v70.743h-68.956v-70.743zm0-22.969a2.754 2.754 0 0 1 2.75-2.752h63.457a2.755 2.755 0 0 1 2.75 2.752v2.073h-68.956l-.001-2.073zm68.956 120.234a2.754 2.754 0 0 1-2.75 2.752h-63.457a2.755 2.755 0 0 1-2.75-2.752v-5.626h68.956l.001 5.626z"/><path d="M467.563 491.085h-57.964v-70.644c0-20.365-12.291-39.709-29.888-47.042l-67.241-28.016a6.374 6.374 0 0 1-3.857-4.916c-.004-.05-.01-.1-.016-.15a6.285 6.285 0 0 1-.063-.838v-16.27l27.31-15.659c.19-.109.377-.225.561-.346 13.674-9.03 22.654-25.091 24.02-42.961.021-.264.03-.531.03-.796v-8.674c13.568-4.413 23.402-17.181 23.402-32.202s-9.836-27.786-23.403-32.201v-5.185c5.962-12.971 30.71-74.005-6.696-121.661-17.285-22.027-38.017-31.388-56.688-26.029-15.794-11.703-34.499-17.405-56.975-17.405-66.872 0-106.833 51.212-106.833 100.722 0 33.246 9.204 58.21 15.085 70.772a34.03 34.03 0 0 0-18.131 19.258H23.986c-13.198 0-23.935 11.026-23.935 24.578v160.273c0 5.77 4.678 10.448 10.448 10.448H69.4v21.209h-7.706c-5.77 0-10.448 4.678-10.448 10.448 0 5.77 4.678 10.448 10.448 10.448h40.657v42.837H44.386c-5.77 0-10.448 4.678-10.448 10.448 0 5.77 4.678 10.448 10.448 10.448h423.177c5.77 0 10.448-4.678 10.448-10.448 0-5.769-4.678-10.446-10.448-10.446zM362.96 222.573c0 7.143-5.812 12.954-12.954 12.954-5.77 0-10.448 4.678-10.448 10.448v17.05c-.949 11.049-6.442 21.174-14.419 26.574l-56.094 32.165c-.191.11-.377.225-.561.346-7.831 5.173-17.184 5.174-25.018 0a9.551 9.551 0 0 0-.573-.352l-56.258-32.161c-7.984-5.406-13.284-15.292-14.245-26.569v-17.052c0-5.77-4.678-10.448-10.448-10.448-7.143 0-12.954-5.812-12.954-12.954 0-6.42 4.699-11.75 10.837-12.766l11.569 5.851a43.318 43.318 0 0 0-1.033 9.376c0 23.901 19.445 43.345 43.345 43.345 20.591 0 37.863-14.437 42.255-33.719 4.391 19.281 21.663 33.719 42.255 33.719 23.901 0 43.345-19.445 43.345-43.345 0-3.174-.352-6.267-1.003-9.249l11.603-5.973c6.118 1.03 10.799 6.353 10.799 12.76zm-75.322 112.619v19.092c0 17.538-14.14 31.806-31.678 31.806s-31.648-14.268-31.648-31.806v-19.078l7.938 4.539c7.333 4.763 15.529 7.144 23.725 7.144 8.198 0 16.396-2.383 23.73-7.148l7.933-4.549zm10.576-153.502c-20.591 0-37.863 14.437-42.255 33.718-4.391-19.281-21.663-33.718-42.255-33.718-13.198 0-25.028 5.935-32.985 15.27l-7.698-3.893c2.416-9.563 11.754-35.265 42.396-35.265 25.023 0 45.467-7.259 62.134-22.129 6.466 5.771 14.972 9.914 22.819 13.736 5.68 2.766 11.551 5.626 14.453 8.19 14.735 13.022 22.154 23.859 24.734 28.054v7.146l-8.274 4.26c-7.956-9.392-19.825-15.369-33.069-15.369zm22.45 43.344c0 12.379-10.071 22.449-22.449 22.449-12.379 0-22.449-10.071-22.449-22.449s10.071-22.448 22.449-22.448c12.378-.001 22.449 10.07 22.449 22.448zm-84.509 0c0 12.379-10.071 22.449-22.449 22.449-12.379 0-22.449-10.071-22.449-22.449s10.071-22.448 22.449-22.448c12.378-.001 22.449 10.07 22.449 22.448zm3.94-184.047c26.2 0 40.129 9.315 48.327 16.322a10.45 10.45 0 0 0 11.361 1.452c10.726-5.221 24.76 1.382 37.537 17.664 21.947 27.961 16.227 63.633 9.906 84.443-4.608-5.502-10.702-11.98-18.564-18.927-5.032-4.448-11.885-7.786-19.141-11.319-8.555-4.167-19.2-9.352-21.217-14.605a10.448 10.448 0 0 0-17.663-3.083c-14.117 16.354-31.666 23.971-55.224 23.971-28.871 0-44.797 15.611-53.073 28.709-.367.58-.72 1.159-1.064 1.737-3.725-11.666-7.124-27.524-7.124-46.536.001-39.24 32.145-79.828 85.939-79.828zM102.35 420.442v6.911H90.296v-21.209h14.079c-1.313 4.607-2.025 9.422-2.025 14.298zm13.486-35.194H20.947V235.422c0-1.996 1.392-3.682 3.039-3.682H129.38c3.066 10.874 11.419 19.555 22.115 23.035v8.674c0 .265.01.532.03.796 1.372 17.943 10.288 34.003 23.852 42.961.187.123.378.24.573.352l27.467 15.702v16.219a6.38 6.38 0 0 1-3.936 5.904L132.239 373.4c-6.241 2.6-11.809 6.717-16.403 11.848zm272.867 105.837H123.246v-70.644c0-11.776 7.321-23.707 17.029-27.753l64.288-26.786c5.308 23.486 26.329 41.083 51.395 41.083 25.071 0 46.094-17.603 51.398-41.094l64.315 26.798c9.708 4.045 17.029 15.976 17.029 27.753v70.643h.003z"/></symbol><symbol id="search" viewBox="0 0 21.09 21.469" preserveAspectRatio="xMidYMid"><path d="M12.084 18a8.95 8.95 0 0 1-4.836-1.417l-4.875 4.875-2.387-2.388 4.806-4.806A8.949 8.949 0 0 1 3.08 8.996 9.003 9.003 0 1 1 12.084 18zm-.035-14.936a5.921 5.921 0 1 0 0 11.842 5.921 5.921 0 0 0 0-11.842z" class="cls-1"/></symbol></svg>