<svg xmlns="http://www.w3.org/2000/svg"><symbol id="facebook" viewBox="0 0 430.113 430.114"><path d="M158.081 83.3v59.218h-43.385v72.412h43.385v215.183h89.122V214.936h59.805s5.601-34.721 8.316-72.685H247.54V92.74c0-7.4 9.717-17.354 19.321-17.354h48.557V.001h-66.021C155.878-.004 158.081 72.48 158.081 83.3z"/></symbol><symbol id="four-square-icon" viewBox="0 0 33.109 33.109"><path d="M33.109.105v14.621H18.49V.105h14.619zM0 14.727h14.62V.105H0v14.622zm18.49 18.277h14.619V18.385H18.49v14.619zm-18.49 0h14.62V18.385H0v14.619z"/></symbol><symbol id="heart" viewBox="0 0 512 512"><path d="M365.109 54.603c-44.572 0-84.156 21.337-109.109 54.35-24.953-33.012-64.538-54.35-109.109-54.35-75.492 0-136.692 61.199-136.692 136.693 0 95.888 83.741 156.115 129.949 190.633 57.242 42.76 52.644 38.401 115.852 75.467 63.206-37.066 58.609-32.706 115.852-75.467 46.209-34.518 129.949-94.746 129.949-190.633 0-75.493-61.199-136.693-136.692-136.693z" fill="#ff757c"/><g fill="#4d4d4d"><path d="M256 467.595c-1.784 0-3.567-.467-5.16-1.401a7687.662 7687.662 0 0 0-24.432-14.256c-39.207-22.805-43.305-25.189-92.364-61.837l-3.208-2.394c-23.647-17.637-56.031-41.793-82.64-73.702C16.216 275.653 0 234.367 0 191.296 0 110.3 65.895 44.405 146.891 44.405c42.168 0 81.27 17.539 109.109 48.529 27.839-30.99 66.94-48.529 109.109-48.529C446.105 44.405 512 110.3 512 191.296c0 43.071-16.216 84.356-48.197 122.709-26.609 31.91-58.994 56.065-82.64 73.703l-3.208 2.394c-49.059 36.648-53.157 39.031-92.364 61.837-6.895 4.01-14.89 8.661-24.432 14.256a10.196 10.196 0 0 1-5.159 1.4zM146.891 64.804c-69.748 0-126.493 56.744-126.493 126.493 0 88.588 76.768 145.849 122.635 180.06l3.22 2.402c48.12 35.946 52.122 38.274 90.412 60.546 5.631 3.276 11.996 6.978 19.336 11.271 7.338-4.293 13.704-7.995 19.336-11.271 38.29-22.272 42.292-24.6 90.412-60.546l3.22-2.402c45.865-34.211 122.633-91.472 122.633-180.06 0-69.748-56.744-126.493-126.493-126.493-40.007 0-76.81 18.334-100.972 50.299a10.2 10.2 0 0 1-16.274 0c-24.162-31.966-60.965-50.299-100.972-50.299z"/><path d="M455.215 203.635c-5.633 0-10.199-4.566-10.199-10.199 0-18.973-6.287-36.784-18.18-51.51-3.539-4.382-2.856-10.803 1.526-14.343 4.382-3.54 10.804-2.856 14.343 1.526 14.645 18.131 22.711 40.976 22.711 64.326-.002 5.634-4.568 10.2-10.201 10.2zM404.402 121.201c-1.543 0-3.108-.351-4.579-1.092a81.695 81.695 0 0 0-10.389-4.361c-5.332-1.816-8.183-7.611-6.367-12.943 1.815-5.333 7.61-8.183 12.943-6.367a102.105 102.105 0 0 1 12.989 5.452c5.031 2.533 7.055 8.666 4.521 13.697a10.198 10.198 0 0 1-9.118 5.614z"/></g></symbol><symbol id="instagram" viewBox="0 0 97.395 97.395"><path d="M12.501 0h72.393c6.875 0 12.5 5.09 12.5 12.5v72.395c0 7.41-5.625 12.5-12.5 12.5H12.501C5.624 97.395 0 92.305 0 84.895V12.5C0 5.09 5.624 0 12.501 0zm58.447 10.821a4.395 4.395 0 0 0-4.383 4.385v10.495a4.396 4.396 0 0 0 4.383 4.385h11.008a4.398 4.398 0 0 0 4.385-4.385V15.206a4.397 4.397 0 0 0-4.385-4.385H70.948zm15.439 30.367h-8.572a28.486 28.486 0 0 1 1.25 8.355c0 16.2-13.556 29.332-30.275 29.332-16.718 0-30.272-13.132-30.272-29.332 0-2.904.438-5.708 1.25-8.355h-8.945v41.141a3.884 3.884 0 0 0 3.872 3.872h67.822a3.883 3.883 0 0 0 3.872-3.872V41.188h-.002zM48.789 29.533c-10.802 0-19.56 8.485-19.56 18.953s8.758 18.953 19.56 18.953c10.803 0 19.562-8.485 19.562-18.953s-8.758-18.953-19.562-18.953z"/></symbol><symbol id="programmer" viewBox="0 0 512 512"><g fill="#ecebed"><path d="M501.552 243.487v12.521H411.7v-12.521c0-7.292 5.907-13.201 13.198-13.201h63.457c7.286 0 13.197 5.909 13.197 13.201zM425.375 347.646h76.177v16.074c0 7.292-5.911 13.2-13.198 13.2h-63.457c-7.291 0-13.198-5.909-13.198-13.2v-16.074h13.676z"/></g><g fill="#27b5f7"><path d="M411.701 256.006h89.852v91.639h-89.852zM257.932 235.422v160.273H10.499V235.422c0-7.803 6.039-14.13 13.487-14.13h220.458c7.449 0 13.488 6.327 13.488 14.13z"/></g><path d="M213.864 319.126v20.353a16.847 16.847 0 0 1-10.365 15.549l-67.241 28.016c-14.206 5.92-23.459 22.008-23.459 37.397v81.092h286.352v-81.092c0-15.389-9.254-31.479-23.459-37.397l-67.241-28.016a16.844 16.844 0 0 1-10.365-15.549v-20.353h-84.222z" fill="#febba0"/><path d="M375.692 383.044l-67.241-28.016a16.838 16.838 0 0 1-10.237-13.561v12.816c0 23.239-19.014 42.255-42.255 42.255-23.239 0-42.254-19.014-42.254-42.255v-12.557a16.839 16.839 0 0 1-10.208 13.301l-67.241 28.016c-14.206 5.92-23.459 22.008-23.459 37.397v81.092h286.352V420.44c.002-15.387-9.253-31.477-23.457-37.396z" fill="#89cd37"/><path d="M350.006 199.171v-30.443c0-51.831-42.017-93.848-93.848-93.848-51.831 0-93.848 42.017-93.848 93.848h-.368v30.443c-12.925 0-23.403 10.478-23.403 23.403 0 12.925 10.478 23.403 23.403 23.403v17.472c1.126 14.735 8.311 27.853 19.192 35.038l56.575 32.343c11.36 7.503 25.173 7.503 36.533 0l56.405-32.343c10.879-7.185 18.233-20.303 19.36-35.038v-17.472c12.925 0 23.403-10.478 23.403-23.403-.001-12.926-10.479-23.403-23.404-23.403z" fill="#febba0"/><path d="M345.538 69.976c-17.704-22.56-36.427-27.376-50.329-20.61-11.022-9.42-27.536-18.827-55.116-18.827-62.297 0-96.385 47.794-96.385 90.274 0 45.334 18.236 74.222 18.236 74.222s6.794-47.684 53.474-47.684c31.206 0 50.01-12.389 63.133-27.592 5.577 14.531 32.583 20.632 43.191 30.01 20.997 18.557 28.249 33.081 28.249 33.081s33.089-65.044-4.453-112.874z" fill="#703e41"/><path d="M113.566 270.634h-.137c-5.77 0-10.448-4.678-10.448-10.448 0-5.77 4.678-10.448 10.448-10.448h.137c5.77 0 10.448 4.678 10.448 10.448 0 5.77-4.678 10.448-10.448 10.448zM79.628 270.634H49.816c-5.77 0-10.448-4.678-10.448-10.448 0-5.77 4.678-10.448 10.448-10.448h29.812c5.77 0 10.448 4.678 10.448 10.448 0 5.77-4.678 10.448-10.448 10.448zM134.215 331.58H49.816c-5.77 0-10.448-4.678-10.448-10.448 0-5.77 4.678-10.448 10.448-10.448h84.399c5.77 0 10.448 4.678 10.448 10.448 0 5.77-4.677 10.448-10.448 10.448zM113.566 301.106h-.137c-5.77 0-10.448-4.678-10.448-10.448 0-5.77 4.678-10.448 10.448-10.448h.137c5.77 0 10.448 4.678 10.448 10.448 0 5.771-4.678 10.448-10.448 10.448zM79.628 301.107H49.816c-5.77 0-10.448-4.678-10.448-10.448 0-5.77 4.678-10.448 10.448-10.448h29.812c5.77 0 10.448 4.678 10.448 10.448 0 5.771-4.678 10.448-10.448 10.448zM144.823 301.107h-.976c-5.77 0-10.448-4.678-10.448-10.448 0-5.77 4.678-10.448 10.448-10.448h.976c5.77 0 10.448 4.678 10.448 10.448 0 5.771-4.678 10.448-10.448 10.448zM10.585 511.981h-.137C4.678 511.981 0 507.304 0 501.533c0-5.77 4.678-10.448 10.448-10.448h.137c5.77 0 10.448 4.678 10.448 10.448 0 5.771-4.678 10.448-10.448 10.448zM501.501 511.981h-.137c-5.77 0-10.448-4.678-10.448-10.448 0-5.77 4.678-10.448 10.448-10.448h.137c5.77 0 10.448 4.678 10.448 10.448 0 5.771-4.678 10.448-10.448 10.448zM294.077 235.482c-6.44 0-11.679-5.239-11.679-11.678 0-6.44 5.239-11.679 11.679-11.679s11.679 5.239 11.679 11.679c0 6.439-5.239 11.678-11.679 11.678zM217.872 235.482c-6.44 0-11.679-5.239-11.679-11.678 0-6.44 5.239-11.679 11.679-11.679s11.679 5.239 11.679 11.679c-.002 6.439-5.24 11.678-11.679 11.678zM256.018 292.456c-11.39 0-20.658-9.267-20.658-20.658 0-5.77 4.678-10.448 10.448-10.448h20.419c5.77 0 10.448 4.678 10.448 10.448 0 11.392-9.266 20.658-20.657 20.658zM222.92 479.118c-2.674 0-5.348-1.02-7.388-3.06l-23.465-23.465c-4.08-4.08-4.08-10.696 0-14.777l23.465-23.465c4.08-4.08 10.696-4.08 14.777 0 4.081 4.08 4.08 10.696 0 14.777l-16.078 16.077 16.078 16.077c4.08 4.08 4.08 10.696 0 14.777a10.417 10.417 0 0 1-7.389 3.059zM288.73 479.118c-2.674 0-5.348-1.02-7.388-3.06-4.08-4.08-4.08-10.696 0-14.777l16.078-16.077-16.078-16.077c-4.08-4.08-4.08-10.696 0-14.777 4.08-4.08 10.696-4.08 14.777 0l23.465 23.465c4.08 4.08 4.08 10.696 0 14.777l-23.465 23.465a10.414 10.414 0 0 1-7.389 3.061zM251.83 479.12c-.628 0-1.263-.057-1.903-.174-5.675-1.045-9.428-6.491-8.384-12.167l8.681-47.169c1.045-5.674 6.487-9.428 12.167-8.384 5.675 1.045 9.428 6.491 8.384 12.167l-8.681 47.169c-.928 5.034-5.321 8.558-10.264 8.558zM81.704 148.015c-17.379 0-31.518-14.139-31.518-31.518V95.95c0-17.379 14.139-31.518 31.518-31.518s31.518 14.139 31.518 31.518v20.548c0 17.379-14.139 31.517-31.518 31.517zm0-62.688c-5.857 0-10.622 4.765-10.622 10.622v20.548c0 5.857 4.765 10.622 10.622 10.622s10.622-4.765 10.622-10.622V95.95c0-5.857-4.765-10.623-10.622-10.623zM31.728 148.015c-5.77 0-10.448-4.678-10.448-10.448v-37.463l-3.393 3.393c-4.08 4.079-10.696 4.079-14.777 0-4.08-4.08-4.08-10.696 0-14.777l21.23-21.228a10.45 10.45 0 0 1 17.836 7.389v62.688c0 5.768-4.677 10.446-10.448 10.446zM430.854 83.602c-17.379 0-31.518-14.139-31.518-31.518V31.537c0-17.379 14.139-31.518 31.518-31.518s31.518 14.139 31.518 31.518v20.548c0 17.378-14.139 31.517-31.518 31.517zm0-62.687c-5.857 0-10.622 4.765-10.622 10.622v20.548c0 5.857 4.765 10.622 10.622 10.622s10.622-4.765 10.622-10.622V31.537c0-5.857-4.765-10.622-10.622-10.622zM501.552 83.602c-5.77 0-10.448-4.678-10.448-10.448V35.69l-3.393 3.395c-4.08 4.079-10.696 4.079-14.777 0-4.08-4.08-4.08-10.696 0-14.777l21.229-21.229a10.448 10.448 0 0 1 17.836 7.389v62.688c.001 5.769-4.677 10.446-10.447 10.446zM488.354 219.838h-63.457c-13.038 0-23.646 10.609-23.646 23.648V363.72c0 13.039 10.608 23.648 23.646 23.648h63.457c13.038 0 23.646-10.609 23.646-23.648V243.486c0-13.039-10.608-23.648-23.646-23.648zm-66.206 46.617h68.956v70.743h-68.956v-70.743zm0-22.969a2.754 2.754 0 0 1 2.75-2.752h63.457a2.755 2.755 0 0 1 2.75 2.752v2.073h-68.956l-.001-2.073zm68.956 120.234a2.754 2.754 0 0 1-2.75 2.752h-63.457a2.755 2.755 0 0 1-2.75-2.752v-5.626h68.956l.001 5.626z"/><path d="M467.563 491.085h-57.964v-70.644c0-20.365-12.291-39.709-29.888-47.042l-67.241-28.016a6.374 6.374 0 0 1-3.857-4.916c-.004-.05-.01-.1-.016-.15a6.285 6.285 0 0 1-.063-.838v-16.27l27.31-15.659c.19-.109.377-.225.561-.346 13.674-9.03 22.654-25.091 24.02-42.961.021-.264.03-.531.03-.796v-8.674c13.568-4.413 23.402-17.181 23.402-32.202s-9.836-27.786-23.403-32.201v-5.185c5.962-12.971 30.71-74.005-6.696-121.661-17.285-22.027-38.017-31.388-56.688-26.029-15.794-11.703-34.499-17.405-56.975-17.405-66.872 0-106.833 51.212-106.833 100.722 0 33.246 9.204 58.21 15.085 70.772a34.03 34.03 0 0 0-18.131 19.258H23.986c-13.198 0-23.935 11.026-23.935 24.578v160.273c0 5.77 4.678 10.448 10.448 10.448H69.4v21.209h-7.706c-5.77 0-10.448 4.678-10.448 10.448 0 5.77 4.678 10.448 10.448 10.448h40.657v42.837H44.386c-5.77 0-10.448 4.678-10.448 10.448 0 5.77 4.678 10.448 10.448 10.448h423.177c5.77 0 10.448-4.678 10.448-10.448 0-5.769-4.678-10.446-10.448-10.446zM362.96 222.573c0 7.143-5.812 12.954-12.954 12.954-5.77 0-10.448 4.678-10.448 10.448v17.05c-.949 11.049-6.442 21.174-14.419 26.574l-56.094 32.165c-.191.11-.377.225-.561.346-7.831 5.173-17.184 5.174-25.018 0a9.551 9.551 0 0 0-.573-.352l-56.258-32.161c-7.984-5.406-13.284-15.292-14.245-26.569v-17.052c0-5.77-4.678-10.448-10.448-10.448-7.143 0-12.954-5.812-12.954-12.954 0-6.42 4.699-11.75 10.837-12.766l11.569 5.851a43.318 43.318 0 0 0-1.033 9.376c0 23.901 19.445 43.345 43.345 43.345 20.591 0 37.863-14.437 42.255-33.719 4.391 19.281 21.663 33.719 42.255 33.719 23.901 0 43.345-19.445 43.345-43.345 0-3.174-.352-6.267-1.003-9.249l11.603-5.973c6.118 1.03 10.799 6.353 10.799 12.76zm-75.322 112.619v19.092c0 17.538-14.14 31.806-31.678 31.806s-31.648-14.268-31.648-31.806v-19.078l7.938 4.539c7.333 4.763 15.529 7.144 23.725 7.144 8.198 0 16.396-2.383 23.73-7.148l7.933-4.549zm10.576-153.502c-20.591 0-37.863 14.437-42.255 33.718-4.391-19.281-21.663-33.718-42.255-33.718-13.198 0-25.028 5.935-32.985 15.27l-7.698-3.893c2.416-9.563 11.754-35.265 42.396-35.265 25.023 0 45.467-7.259 62.134-22.129 6.466 5.771 14.972 9.914 22.819 13.736 5.68 2.766 11.551 5.626 14.453 8.19 14.735 13.022 22.154 23.859 24.734 28.054v7.146l-8.274 4.26c-7.956-9.392-19.825-15.369-33.069-15.369zm22.45 43.344c0 12.379-10.071 22.449-22.449 22.449-12.379 0-22.449-10.071-22.449-22.449s10.071-22.448 22.449-22.448c12.378-.001 22.449 10.07 22.449 22.448zm-84.509 0c0 12.379-10.071 22.449-22.449 22.449-12.379 0-22.449-10.071-22.449-22.449s10.071-22.448 22.449-22.448c12.378-.001 22.449 10.07 22.449 22.448zm3.94-184.047c26.2 0 40.129 9.315 48.327 16.322a10.45 10.45 0 0 0 11.361 1.452c10.726-5.221 24.76 1.382 37.537 17.664 21.947 27.961 16.227 63.633 9.906 84.443-4.608-5.502-10.702-11.98-18.564-18.927-5.032-4.448-11.885-7.786-19.141-11.319-8.555-4.167-19.2-9.352-21.217-14.605a10.448 10.448 0 0 0-17.663-3.083c-14.117 16.354-31.666 23.971-55.224 23.971-28.871 0-44.797 15.611-53.073 28.709-.367.58-.72 1.159-1.064 1.737-3.725-11.666-7.124-27.524-7.124-46.536.001-39.24 32.145-79.828 85.939-79.828zM102.35 420.442v6.911H90.296v-21.209h14.079c-1.313 4.607-2.025 9.422-2.025 14.298zm13.486-35.194H20.947V235.422c0-1.996 1.392-3.682 3.039-3.682H129.38c3.066 10.874 11.419 19.555 22.115 23.035v8.674c0 .265.01.532.03.796 1.372 17.943 10.288 34.003 23.852 42.961.187.123.378.24.573.352l27.467 15.702v16.219a6.38 6.38 0 0 1-3.936 5.904L132.239 373.4c-6.241 2.6-11.809 6.717-16.403 11.848zm272.867 105.837H123.246v-70.644c0-11.776 7.321-23.707 17.029-27.753l64.288-26.786c5.308 23.486 26.329 41.083 51.395 41.083 25.071 0 46.094-17.603 51.398-41.094l64.315 26.798c9.708 4.045 17.029 15.976 17.029 27.753v70.643h.003z"/></symbol><symbol id="twitter" viewBox="0 0 430.117 430.117"><path d="M381.384 198.639c24.157-1.993 40.543-12.975 46.849-27.876-8.714 5.353-35.764 11.189-50.703 5.631-.732-3.51-1.55-6.844-2.353-9.854-11.383-41.798-50.357-75.472-91.194-71.404a173.448 173.448 0 0 1 9.996-3.691c4.495-1.61 30.868-5.901 26.715-15.21-3.5-8.188-35.722 6.188-41.789 8.067 8.009-3.012 21.254-8.193 22.673-17.396-12.27 1.683-24.315 7.484-33.622 15.919 3.36-3.617 5.909-8.025 6.45-12.769C241.68 90.963 222.563 133.113 207.092 174c-12.148-11.773-22.915-21.044-32.574-26.192-27.097-14.531-59.496-29.692-110.355-48.572-1.561 16.827 8.322 39.201 36.8 54.08-6.17-.826-17.453 1.017-26.477 3.178 3.675 19.277 15.677 35.159 48.169 42.839-14.849.98-22.523 4.359-29.478 11.642 6.763 13.407 23.266 29.186 52.953 25.947-33.006 14.226-13.458 40.571 13.399 36.642C113.713 320.887 41.479 317.409 0 277.828c108.299 147.572 343.716 87.274 378.799-54.866 26.285.224 41.737-9.105 51.318-19.39-15.144 2.57-37.094-.086-48.733-4.933z"/></symbol></svg>