<svg xmlns="http://www.w3.org/2000/svg" xmlns:xlink="http://www.w3.org/1999/xlink" preserveAspectRatio="xMidYMid" width="16" height="13" viewBox="0 0 16 13">
  <defs>
    <style>
      .cls-1 {
        fill: #fff;
        fill-rule: evenodd;
      }
    </style>
  </defs>
  <path d="M16.000,1.539 C15.411,1.800 14.779,1.977 14.115,2.056 C14.792,1.651 15.313,1.006 15.557,0.241 C14.923,0.616 14.220,0.889 13.472,1.037 C12.873,0.399 12.020,0.000 11.076,0.000 C9.262,0.000 7.792,1.470 7.792,3.282 C7.792,3.539 7.821,3.790 7.877,4.030 C5.149,3.892 2.729,2.586 1.110,0.599 C0.827,1.085 0.666,1.650 0.666,2.250 C0.666,3.389 1.424,4.393 2.305,4.982 C1.767,4.965 0.997,4.817 0.997,4.571 C0.997,4.585 0.997,4.597 0.997,4.612 C0.997,6.202 1.950,7.529 3.452,7.831 C3.176,7.906 2.797,7.946 2.497,7.946 C2.285,7.946 2.035,7.924 1.834,7.886 C2.252,9.191 3.442,10.139 4.878,10.166 C3.755,11.046 2.327,11.572 0.789,11.572 C0.523,11.572 0.257,11.555 0.000,11.525 C1.454,12.456 3.176,13.000 5.031,13.000 C11.070,13.000 14.371,7.998 14.371,3.661 C14.371,3.518 14.367,3.377 14.361,3.236 C15.002,2.774 15.557,2.195 15.998,1.537 L16.000,1.539 Z" class="cls-1"/>
</svg>
