<svg xmlns="http://www.w3.org/2000/svg" xmlns:xlink="http://www.w3.org/1999/xlink" preserveAspectRatio="xMidYMid" width="177" height="177" viewBox="0 0 177 177">
  <defs>
    <style>
      .cls-1 {
        fill: #28c8c6;
        fill-rule: evenodd;
      }
    </style>
  </defs>
  <path d="M151.064,151.065 C133.855,168.274 112.799,177.000 88.480,177.000 C64.188,177.000 43.144,168.274 25.935,151.066 C8.726,133.856 0.000,112.799 0.000,88.481 C0.000,64.188 8.726,43.144 25.935,25.935 C43.144,8.726 64.187,0.000 88.480,0.000 C112.800,0.000 133.856,8.726 151.065,25.935 C168.274,43.144 177.000,64.188 177.000,88.481 C177.000,112.799 168.274,133.856 151.064,151.065 ZM144.418,32.582 L144.417,32.582 C128.819,16.983 110.522,9.401 88.480,9.401 C66.465,9.401 48.181,16.983 32.582,32.582 C16.983,48.181 9.400,66.466 9.400,88.481 C9.400,110.521 16.983,128.819 32.582,144.419 C48.181,160.017 66.466,167.600 88.480,167.600 C110.521,167.600 128.819,160.017 144.418,144.419 C160.017,128.819 167.600,110.521 167.600,88.481 C167.600,66.466 160.017,48.181 144.418,32.582 ZM83.584,30.473 C85.177,28.906 86.757,28.253 88.323,28.514 C89.917,28.227 91.509,28.880 93.102,30.473 L138.889,136.422 L58.086,89.460 L83.584,30.473 ZM37.797,136.422 L57.224,91.575 L86.130,108.378 L37.797,136.422 Z" class="cls-1"/>
</svg>
