<svg xmlns="http://www.w3.org/2000/svg"><defs><style>.cls-1{fill:#fff;fill-rule:evenodd}</style><style>.cls-1{fill:#fff;fill-rule:evenodd}</style><style>.cls-1{fill:#fff;fill-rule:evenodd}</style><style>.cls-1{fill:#28c8c6;fill-rule:evenodd}</style><style>.cls-1{fill:#28c8c6;fill-rule:evenodd}</style></defs><symbol id="arrow" viewBox="0 0 33 33" preserveAspectRatio="xMidYMid"><path d="M16.5 33C7.387 33 0 25.613 0 16.5S7.387 0 16.5 0 33 7.387 33 16.5 25.613 33 16.5 33zm0-29.906C9.096 3.094 3.094 9.096 3.094 16.5c0 7.404 6.002 13.406 13.406 13.406 7.404 0 13.406-6.002 13.406-13.406 0-7.404-6.002-13.406-13.406-13.406zm5.79 15.988l-4.64 5.156-.004-.004c-.284.314-.69.516-1.146.516a1.54 1.54 0 0 1-1.146-.516l-.004.004-4.64-5.156.004-.004a1.534 1.534 0 0 1-.401-1.031c0-.854.692-1.547 1.546-1.547.457 0 .863.202 1.146.516l.004-.004 1.944 2.16V9.797a1.547 1.547 0 0 1 3.094 0v9.375l1.944-2.16.004.004a1.538 1.538 0 0 1 1.146-.516c.854 0 1.546.693 1.546 1.547 0 .398-.154.757-.401 1.031l.004.004z" class="cls-1"/></symbol><symbol id="icon-fb" viewBox="0 0 9.94 16" preserveAspectRatio="xMidYMid"><path d="M6.068 0c-1.744 0-3 1.377-3 3.077V6H-.011v3h3.079v7h3.079V9h3.158l.631-3H6.147V4.077c0-.339.598-1.077.947-1.077h2.132V0H6.068z" class="cls-1"/></symbol><symbol id="icon-tw" viewBox="0 0 16 13" preserveAspectRatio="xMidYMid"><path d="M16 1.539a6.555 6.555 0 0 1-1.885.517A3.287 3.287 0 0 0 15.557.241a6.616 6.616 0 0 1-2.085.796A3.283 3.283 0 0 0 7.877 4.03 9.323 9.323 0 0 1 1.11.599 3.273 3.273 0 0 0 .666 2.25c0 1.139.758 2.143 1.639 2.732-.538-.017-1.308-.165-1.308-.411v.041c0 1.59.953 2.917 2.455 3.219a4.002 4.002 0 0 1-.955.115 3.81 3.81 0 0 1-.663-.06 3.258 3.258 0 0 0 3.044 2.28A6.623 6.623 0 0 1 0 11.525 9.292 9.292 0 0 0 5.031 13c6.039 0 9.34-5.002 9.34-9.339 0-.143-.004-.284-.01-.425a6.679 6.679 0 0 0 1.637-1.699l.002.002z" class="cls-1"/></symbol><symbol id="large-logo" viewBox="0 0 177 177" preserveAspectRatio="xMidYMid"><path d="M151.064 151.065C133.855 168.274 112.799 177 88.48 177c-24.292 0-45.336-8.726-62.545-25.934C8.726 133.856 0 112.799 0 88.481c0-24.293 8.726-45.337 25.935-62.546C43.144 8.726 64.187 0 88.48 0c24.32 0 45.376 8.726 62.585 25.935C168.274 43.144 177 64.188 177 88.481c0 24.318-8.726 45.375-25.936 62.584zm-6.646-118.483h-.001C128.819 16.983 110.522 9.401 88.48 9.401c-22.015 0-40.299 7.582-55.898 23.181C16.983 48.181 9.4 66.466 9.4 88.481c0 22.04 7.583 40.338 23.182 55.938C48.181 160.017 66.466 167.6 88.48 167.6c22.041 0 40.339-7.583 55.938-23.181 15.599-15.6 23.182-33.898 23.182-55.938 0-22.015-7.583-40.3-23.182-55.899zm-60.834-2.109c1.593-1.567 3.173-2.22 4.739-1.959 1.594-.287 3.186.366 4.779 1.959l45.787 105.949L58.086 89.46l25.498-58.987zM37.797 136.422l19.427-44.847 28.906 16.803-48.333 28.044z" class="cls-1"/></symbol><symbol id="logo" viewBox="0 0 68 68" preserveAspectRatio="xMidYMid"><path d="M58.036 58.036C51.425 64.648 43.335 68 33.992 68c-9.332 0-17.417-3.352-24.028-9.963C3.352 51.425 0 43.335 0 33.993 0 24.66 3.352 16.575 9.964 9.964 16.575 3.352 24.66 0 33.992 0c9.343 0 17.433 3.352 24.044 9.964C64.648 16.575 68 24.66 68 33.993c0 9.342-3.352 17.432-9.964 24.043zm-2.553-45.519h-.001c-5.992-5.992-13.021-8.905-21.49-8.905-8.457 0-15.482 2.913-21.475 8.905-5.992 5.993-8.906 13.018-8.906 21.476 0 8.467 2.914 15.497 8.906 21.49 5.993 5.992 13.018 8.906 21.475 8.906 8.468 0 15.498-2.914 21.491-8.906 5.992-5.993 8.906-13.023 8.906-21.49 0-8.458-2.914-15.483-8.906-21.476zm-23.371-.81c.611-.602 1.218-.853 1.82-.752.612-.111 1.224.14 1.836.752l17.591 40.704-31.044-18.042 9.797-22.662zM14.521 52.411l7.463-17.23 11.106 6.456-18.569 10.774z" class="cls-1"/></symbol></svg>